<svg width="586" height="441" viewBox="0 0 586 441" fill="none" xmlns="http://www.w3.org/2000/svg">
<line opacity="0.1" x1="45.5" y1="441" x2="45.5" y2="-2.5431e-08" stroke="#1A1A1A"/>
<line opacity="0.1" x1="0.5" y1="441" x2="0.500017" y2="-2.5431e-08" stroke="#1A1A1A"/>
<line opacity="0.1" x1="405.5" y1="441" x2="405.5" y2="-2.5431e-08" stroke="#1A1A1A"/>
<line opacity="0.1" x1="540.5" y1="441" x2="540.5" y2="-2.5431e-08" stroke="#1A1A1A"/>
<line opacity="0.1" x1="450.5" y1="441" x2="450.5" y2="-2.5431e-08" stroke="#1A1A1A"/>
<line opacity="0.1" x1="585.5" y1="441" x2="585.5" y2="-2.5431e-08" stroke="#1A1A1A"/>
<line opacity="0.1" x1="360.5" y1="441" x2="360.5" y2="-2.5431e-08" stroke="#1A1A1A"/>
<line opacity="0.1" x1="495.5" y1="441" x2="495.5" y2="-2.5431e-08" stroke="#1A1A1A"/>
<line opacity="0.1" x1="315.5" y1="441" x2="315.5" y2="-2.5431e-08" stroke="#1A1A1A"/>
<line opacity="0.1" x1="270.5" y1="441" x2="270.5" y2="-2.5431e-08" stroke="#1A1A1A"/>
<line opacity="0.1" x1="225.5" y1="441" x2="225.5" y2="-2.5431e-08" stroke="#1A1A1A"/>
<line opacity="0.1" x1="180.5" y1="441" x2="180.5" y2="-2.5431e-08" stroke="#1A1A1A"/>
<line opacity="0.1" x1="135.5" y1="441" x2="135.5" y2="-2.5431e-08" stroke="#1A1A1A"/>
<line opacity="0.1" x1="90.5" y1="441" x2="90.5" y2="-2.5431e-08" stroke="#1A1A1A"/>
<path d="M136.21 375.42C144.058 375.42 150.42 369.058 150.42 361.21C150.42 353.362 144.058 347 136.21 347C128.362 347 122 353.362 122 361.21C122 369.058 128.362 375.42 136.21 375.42Z" fill="url(#paint0_linear_3652_4383)"/>
<path d="M46.21 375.42C54.058 375.42 60.42 369.058 60.42 361.21C60.42 353.362 54.058 347 46.21 347C38.362 347 32 353.362 32 361.21C32 369.058 38.362 375.42 46.21 375.42Z" fill="url(#paint1_linear_3652_4383)"/>
<path d="M136.21 281.42C144.058 281.42 150.42 275.058 150.42 267.21C150.42 259.362 144.058 253 136.21 253C128.362 253 122 259.362 122 267.21C122 275.058 128.362 281.42 136.21 281.42Z" fill="url(#paint2_linear_3652_4383)"/>
<path d="M451.21 375.42C459.058 375.42 465.42 369.058 465.42 361.21C465.42 353.362 459.058 347 451.21 347C443.362 347 437 353.362 437 361.21C437 369.058 443.362 375.42 451.21 375.42Z" fill="url(#paint3_linear_3652_4383)"/>
<path d="M541.21 375.42C549.058 375.42 555.42 369.058 555.42 361.21C555.42 353.362 549.058 347 541.21 347C533.362 347 527 353.362 527 361.21C527 369.058 533.362 375.42 541.21 375.42Z" fill="url(#paint4_linear_3652_4383)"/>
<path d="M451.21 281.42C459.058 281.42 465.42 275.058 465.42 267.21C465.42 259.362 459.058 253 451.21 253C443.362 253 437 259.362 437 267.21C437 275.058 443.362 281.42 451.21 281.42Z" fill="url(#paint5_linear_3652_4383)"/>
<path d="M292.21 187.42C300.058 187.42 306.42 181.058 306.42 173.21C306.42 165.362 300.058 159 292.21 159C284.362 159 278 165.362 278 173.21C278 181.058 284.362 187.42 292.21 187.42Z" fill="url(#paint6_linear_3652_4383)"/>
<path d="M292.21 93.42C300.058 93.42 306.42 87.058 306.42 79.21C306.42 71.362 300.058 65 292.21 65C284.362 65 278 71.362 278 79.21C278 87.058 284.362 93.42 292.21 93.42Z" fill="url(#paint7_linear_3652_4383)"/>
<path d="M226.21 281.42C234.058 281.42 240.42 275.058 240.42 267.21C240.42 259.362 234.058 253 226.21 253C218.362 253 212 259.362 212 267.21C212 275.058 218.362 281.42 226.21 281.42Z" fill="url(#paint8_linear_3652_4383)"/>
<path d="M226.21 187.42C234.058 187.42 240.42 181.058 240.42 173.21C240.42 165.362 234.058 159 226.21 159C218.362 159 212 165.362 212 173.21C212 181.058 218.362 187.42 226.21 187.42Z" fill="url(#paint9_linear_3652_4383)"/>
<path d="M361.21 281.42C369.058 281.42 375.42 275.058 375.42 267.21C375.42 259.362 369.058 253 361.21 253C353.362 253 347 259.362 347 267.21C347 275.058 353.362 281.42 361.21 281.42Z" fill="url(#paint10_linear_3652_4383)"/>
<path d="M361.21 187.42C369.058 187.42 375.42 181.058 375.42 173.21C375.42 165.362 369.058 159 361.21 159C353.362 159 347 165.362 347 173.21C347 181.058 353.362 187.42 361.21 187.42Z" fill="url(#paint11_linear_3652_4383)"/>
<defs>
<linearGradient id="paint0_linear_3652_4383" x1="211.997" y1="339.106" x2="125.947" y2="368.71" gradientUnits="userSpaceOnUse">
<stop stop-color="#FFCCBD"/>
<stop offset="0.31" stop-color="#D8B0FF"/>
<stop offset="0.66" stop-color="#A7CAFF"/>
<stop offset="1" stop-color="#E1FFA3"/>
</linearGradient>
<linearGradient id="paint1_linear_3652_4383" x1="52.9203" y1="375.42" x2="32" y2="322.133" gradientUnits="userSpaceOnUse">
<stop stop-color="#FFCCBD"/>
<stop offset="0.31" stop-color="#D8B0FF"/>
<stop offset="0.66" stop-color="#A7CAFF"/>
<stop offset="1" stop-color="#E1FFA3"/>
</linearGradient>
<linearGradient id="paint2_linear_3652_4383" x1="130.289" y1="267.21" x2="173.709" y2="351.681" gradientUnits="userSpaceOnUse">
<stop stop-color="#FFCCBD"/>
<stop offset="0.31" stop-color="#D8B0FF"/>
<stop offset="0.66" stop-color="#A7CAFF"/>
<stop offset="1" stop-color="#E1FFA3"/>
</linearGradient>
<linearGradient id="paint3_linear_3652_4383" x1="492.261" y1="347" x2="437" y2="361.21" gradientUnits="userSpaceOnUse">
<stop stop-color="#FFCCBD"/>
<stop offset="0.31" stop-color="#D8B0FF"/>
<stop offset="0.66" stop-color="#A7CAFF"/>
<stop offset="1" stop-color="#E1FFA3"/>
</linearGradient>
<linearGradient id="paint4_linear_3652_4383" x1="555.42" y1="347" x2="499.369" y2="381.341" gradientUnits="userSpaceOnUse">
<stop stop-color="#FFCCBD"/>
<stop offset="0.31" stop-color="#D8B0FF"/>
<stop offset="0.66" stop-color="#A7CAFF"/>
<stop offset="1" stop-color="#E1FFA3"/>
</linearGradient>
<linearGradient id="paint5_linear_3652_4383" x1="460.683" y1="285.367" x2="415.29" y2="249.053" gradientUnits="userSpaceOnUse">
<stop stop-color="#FFCCBD"/>
<stop offset="0.31" stop-color="#D8B0FF"/>
<stop offset="0.66" stop-color="#A7CAFF"/>
<stop offset="1" stop-color="#E1FFA3"/>
</linearGradient>
<linearGradient id="paint6_linear_3652_4383" x1="270.895" y1="146.369" x2="292.21" y2="198.078" gradientUnits="userSpaceOnUse">
<stop stop-color="#FFCCBD"/>
<stop offset="0.31" stop-color="#D8B0FF"/>
<stop offset="0.66" stop-color="#A7CAFF"/>
<stop offset="1" stop-color="#E1FFA3"/>
</linearGradient>
<linearGradient id="paint7_linear_3652_4383" x1="317.93" y1="69.0072" x2="269.607" y2="88.1718" gradientUnits="userSpaceOnUse">
<stop stop-color="#FFCCBD"/>
<stop offset="0.31" stop-color="#D8B0FF"/>
<stop offset="0.66" stop-color="#A7CAFF"/>
<stop offset="1" stop-color="#E1FFA3"/>
</linearGradient>
<linearGradient id="paint8_linear_3652_4383" x1="262.919" y1="277.473" x2="212" y2="248.263" gradientUnits="userSpaceOnUse">
<stop stop-color="#FFCCBD"/>
<stop offset="0.31" stop-color="#D8B0FF"/>
<stop offset="0.66" stop-color="#A7CAFF"/>
<stop offset="1" stop-color="#E1FFA3"/>
</linearGradient>
<linearGradient id="paint9_linear_3652_4383" x1="231.341" y1="168.079" x2="170.159" y2="194.92" gradientUnits="userSpaceOnUse">
<stop stop-color="#FFCCBD"/>
<stop offset="0.31" stop-color="#D8B0FF"/>
<stop offset="0.66" stop-color="#A7CAFF"/>
<stop offset="1" stop-color="#E1FFA3"/>
</linearGradient>
<linearGradient id="paint10_linear_3652_4383" x1="356.868" y1="228.527" x2="365.947" y2="267.21" gradientUnits="userSpaceOnUse">
<stop stop-color="#FFCCBD"/>
<stop offset="0.31" stop-color="#D8B0FF"/>
<stop offset="0.66" stop-color="#A7CAFF"/>
<stop offset="1" stop-color="#E1FFA3"/>
</linearGradient>
<linearGradient id="paint11_linear_3652_4383" x1="361.21" y1="161.763" x2="338.711" y2="213.866" gradientUnits="userSpaceOnUse">
<stop stop-color="#FFCCBD"/>
<stop offset="0.31" stop-color="#D8B0FF"/>
<stop offset="0.66" stop-color="#A7CAFF"/>
<stop offset="1" stop-color="#E1FFA3"/>
</linearGradient>
</defs>
</svg>
